<mxfile host="app.diagrams.net" agent="Mozilla/5.0 (Windows NT 10.0; Win64; x64) AppleWebKit/537.36 (KHTML, like Gecko) Chrome/137.0.0.0 Safari/537.36" version="27.1.6">
  <diagram name="Page-1" id="c4acf3e9-155e-7222-9cf6-157b1a14988f">
    <mxGraphModel dx="1426" dy="785" grid="1" gridSize="10" guides="1" tooltips="1" connect="1" arrows="1" fold="1" page="1" pageScale="1" pageWidth="850" pageHeight="1100" background="none" math="0" shadow="0">
      <root>
        <mxCell id="0" />
        <mxCell id="1" parent="0" />
        <mxCell id="17acba5748e5396b-1" value="HBIM" style="shape=umlFrame;whiteSpace=wrap;html=1;rounded=0;shadow=0;comic=0;labelBackgroundColor=none;strokeWidth=1;fontFamily=Verdana;fontSize=10;align=center;" parent="1" vertex="1">
          <mxGeometry x="20" y="20" width="820" height="680" as="geometry" />
        </mxCell>
        <mxCell id="17acba5748e5396b-44" value="&lt;div&gt;&lt;font style=&quot;font-size: 12px;&quot;&gt;&lt;b style=&quot;font-family: Helvetica;&quot;&gt;&amp;lt;&amp;lt;featureType&amp;gt;&amp;gt;&lt;/b&gt;&lt;/font&gt;&lt;/div&gt;&lt;font style=&quot;font-size: 12px;&quot;&gt;Documents&lt;/font&gt;" style="swimlane;html=1;fontStyle=0;childLayout=stackLayout;horizontal=1;startSize=40;fillColor=none;horizontalStack=0;resizeParent=1;resizeLast=0;collapsible=1;marginBottom=0;swimlaneFillColor=#ffffff;rounded=0;shadow=0;comic=0;labelBackgroundColor=none;strokeWidth=1;fontFamily=Verdana;fontSize=10;align=center;" parent="1" vertex="1">
          <mxGeometry x="387.5" y="30" width="230" height="124" as="geometry" />
        </mxCell>
        <mxCell id="17acba5748e5396b-45" value="&lt;div&gt;&amp;nbsp; + docID: int&lt;/div&gt;&lt;div&gt;&amp;nbsp; + title: string&lt;/div&gt;&lt;div&gt;&amp;nbsp; + author: string&lt;/div&gt;&lt;div&gt;&amp;nbsp; + date: date&lt;/div&gt;&lt;div&gt;&amp;nbsp; + documentType: &lt;b&gt;DocumentType&lt;/b&gt;&amp;nbsp;&lt;/div&gt;" style="text;html=1;strokeColor=none;fillColor=none;align=left;verticalAlign=top;spacingLeft=4;spacingRight=4;whiteSpace=wrap;overflow=hidden;rotatable=0;points=[[0,0.5],[1,0.5]];portConstraint=eastwest;" parent="17acba5748e5396b-44" vertex="1">
          <mxGeometry y="40" width="230" height="84" as="geometry" />
        </mxCell>
        <mxCell id="TEzwwiUS5SfaXioJ1mf_-1" value="&lt;div&gt;&lt;i style=&quot;&quot;&gt;&lt;span style=&quot;font-weight: 400;&quot;&gt;&amp;lt;&amp;lt;featureType&amp;gt;&amp;gt;&lt;/span&gt;&lt;/i&gt;&lt;/div&gt;&lt;span style=&quot;font-weight: normal;&quot;&gt;&lt;i&gt;3DRepresentation&lt;/i&gt;&lt;/span&gt;" style="swimlane;fontStyle=1;align=center;verticalAlign=top;childLayout=stackLayout;horizontal=1;startSize=40;horizontalStack=0;resizeParent=1;resizeParentMax=0;resizeLast=0;collapsible=1;marginBottom=0;whiteSpace=wrap;html=1;" parent="1" vertex="1">
          <mxGeometry x="387.5" y="170" width="162.5" height="170" as="geometry" />
        </mxCell>
        <mxCell id="TEzwwiUS5SfaXioJ1mf_-2" value="&lt;p style=&quot;text-wrap-mode: nowrap; margin: 0px 0px 0px 4px;&quot;&gt;+ versionID: int&lt;/p&gt;&lt;p style=&quot;margin: 0px 0px 0px 4px;&quot;&gt;&lt;span style=&quot;text-wrap-mode: nowrap;&quot;&gt;+ spatialReferenceType:&amp;nbsp;&lt;/span&gt;&lt;/p&gt;&lt;p style=&quot;margin: 0px 0px 0px 4px;&quot;&gt;&lt;span style=&quot;text-wrap-mode: nowrap;&quot;&gt;&amp;nbsp; &amp;nbsp;&lt;b&gt;SpatialReferenceType&lt;/b&gt;&lt;/span&gt;&lt;/p&gt;&lt;p style=&quot;text-wrap-mode: nowrap; margin: 0px 0px 0px 4px;&quot;&gt;+ systemStart: date&lt;/p&gt;&lt;p style=&quot;text-wrap-mode: nowrap; margin: 0px 0px 0px 4px;&quot;&gt;+ systemEnd: date [0..1]&amp;nbsp;&amp;nbsp;&lt;/p&gt;&lt;p style=&quot;text-wrap-mode: nowrap; margin: 0px 0px 0px 4px;&quot;&gt;+ validFrom: date&lt;/p&gt;&lt;p style=&quot;text-wrap-mode: nowrap; margin: 0px 0px 0px 4px;&quot;&gt;+ validTo: date [0..1]&lt;/p&gt;&lt;p style=&quot;margin: 0px 0px 0px 4px;&quot;&gt;&lt;span style=&quot;text-wrap-mode: nowrap;&quot;&gt;+ format: string [0..1]&lt;/span&gt;&lt;/p&gt;" style="text;strokeColor=none;fillColor=none;align=left;verticalAlign=top;spacingLeft=4;spacingRight=4;overflow=hidden;rotatable=0;points=[[0,0.5],[1,0.5]];portConstraint=eastwest;whiteSpace=wrap;html=1;" parent="TEzwwiUS5SfaXioJ1mf_-1" vertex="1">
          <mxGeometry y="40" width="162.5" height="130" as="geometry" />
        </mxCell>
        <mxCell id="TEzwwiUS5SfaXioJ1mf_-9" value="&lt;p style=&quot;margin:0px;margin-top:4px;text-align:center;&quot;&gt;&lt;b&gt;&amp;lt;&amp;lt;featureType&amp;gt;&amp;gt;&lt;/b&gt;&lt;b&gt;&lt;/b&gt;&lt;/p&gt;&lt;p style=&quot;margin:0px;margin-top:4px;text-align:center;&quot;&gt;&lt;b&gt;PointCloud&lt;/b&gt;&lt;/p&gt;&lt;hr size=&quot;1&quot;&gt;&lt;p style=&quot;margin:0px;margin-left:4px;&quot;&gt;+ pointCount: integer&lt;/p&gt;&lt;p style=&quot;margin:0px;margin-left:4px;&quot;&gt;+ spatialExtent: boundingBox&lt;/p&gt;&lt;p style=&quot;margin:0px;margin-left:4px;&quot;&gt;&lt;br&gt;&lt;/p&gt;" style="verticalAlign=top;align=left;overflow=fill;fontSize=12;fontFamily=Helvetica;html=1;rounded=0;shadow=0;comic=0;labelBackgroundColor=none;strokeWidth=1" parent="1" vertex="1">
          <mxGeometry x="40" y="380" width="170" height="90" as="geometry" />
        </mxCell>
        <mxCell id="nKKZoiiLEV9BoTgGwU7D-2" value="0..*" style="endArrow=none;html=1;endSize=12;startArrow=diamondThin;startSize=14;startFill=0;edgeStyle=orthogonalEdgeStyle;align=left;verticalAlign=bottom;rounded=0;entryX=0;entryY=0.5;entryDx=0;entryDy=0;exitX=1;exitY=0.5;exitDx=0;exitDy=0;" parent="1" source="8iUgthhELrvNvATAvzKY-1" target="TEzwwiUS5SfaXioJ1mf_-2" edge="1">
          <mxGeometry x="0.6579" y="7" relative="1" as="geometry">
            <mxPoint x="317.5" y="196" as="sourcePoint" />
            <mxPoint x="540" y="330" as="targetPoint" />
            <mxPoint as="offset" />
          </mxGeometry>
        </mxCell>
        <mxCell id="8iUgthhELrvNvATAvzKY-1" value="&lt;p style=&quot;margin:0px;margin-top:4px;text-align:center;&quot;&gt;&lt;b&gt;&amp;lt;&amp;lt;featureType&amp;gt;&amp;gt;&lt;/b&gt;&lt;b&gt;&lt;/b&gt;&lt;/p&gt;&lt;p style=&quot;margin:0px;margin-top:4px;text-align:center;&quot;&gt;&lt;b&gt;HeritageObject&lt;/b&gt;&lt;/p&gt;&lt;hr size=&quot;1&quot;&gt;&lt;p style=&quot;margin:0px;margin-left:4px;&quot;&gt;+ objectID: string&lt;br&gt;+ name: string&lt;/p&gt;&lt;p style=&quot;margin:0px;margin-left:4px;&quot;&gt;+ location: string&lt;/p&gt;&lt;p style=&quot;margin:0px;margin-left:4px;&quot;&gt;+ category: string&lt;/p&gt;&lt;p style=&quot;margin: 0px 0px 0px 4px;&quot;&gt;+ objectSemantics: ExternalSemanticRef-&lt;/p&gt;&lt;p style=&quot;margin: 0px 0px 0px 4px;&quot;&gt;&amp;nbsp; &amp;nbsp;erence [0..1] &amp;lt;&amp;lt;see Figure 3.1&amp;gt;&amp;gt;&lt;/p&gt;&lt;p style=&quot;margin:0px;margin-left:4px;&quot;&gt;+ hasDocument: Document [0..*]&lt;/p&gt;" style="verticalAlign=top;align=left;overflow=fill;fontSize=12;fontFamily=Helvetica;html=1;rounded=0;shadow=0;comic=0;labelBackgroundColor=none;strokeWidth=1" parent="1" vertex="1">
          <mxGeometry x="70" y="110" width="240" height="160" as="geometry" />
        </mxCell>
        <mxCell id="8iUgthhELrvNvATAvzKY-2" value="" style="endArrow=block;endFill=0;endSize=12;html=1;rounded=0;exitX=0.5;exitY=0;exitDx=0;exitDy=0;edgeStyle=orthogonalEdgeStyle;" parent="1" source="TEzwwiUS5SfaXioJ1mf_-9" target="TEzwwiUS5SfaXioJ1mf_-1" edge="1">
          <mxGeometry width="160" relative="1" as="geometry">
            <mxPoint x="565" y="535" as="sourcePoint" />
            <mxPoint x="628" y="535" as="targetPoint" />
          </mxGeometry>
        </mxCell>
        <mxCell id="8iUgthhELrvNvATAvzKY-3" value="&lt;p style=&quot;margin:0px;margin-top:4px;text-align:center;&quot;&gt;&lt;b&gt;&amp;lt;&amp;lt;featureType&amp;gt;&amp;gt;&lt;/b&gt;&lt;b&gt;&lt;/b&gt;&lt;/p&gt;&lt;p style=&quot;margin:0px;margin-top:4px;text-align:center;&quot;&gt;&lt;b&gt;BIMModel&lt;/b&gt;&lt;/p&gt;&lt;hr size=&quot;1&quot;&gt;&lt;p style=&quot;margin:0px;margin-left:4px;&quot;&gt;+standard: BIMFormatType&lt;/p&gt;&lt;p style=&quot;margin:0px;margin-left:4px;&quot;&gt;+LOD: Enum (LoD1â€“LoD4)&lt;/p&gt;&lt;p style=&quot;margin:0px;margin-left:4px;&quot;&gt;+containsElement: BIMElement [0..*]&lt;/p&gt;" style="verticalAlign=top;align=left;overflow=fill;fontSize=12;fontFamily=Helvetica;html=1;rounded=0;shadow=0;comic=0;labelBackgroundColor=none;strokeWidth=1" parent="1" vertex="1">
          <mxGeometry x="222.5" y="380" width="210" height="100" as="geometry" />
        </mxCell>
        <mxCell id="8iUgthhELrvNvATAvzKY-4" value="&lt;p style=&quot;margin:0px;margin-top:4px;text-align:center;&quot;&gt;&lt;b&gt;&amp;lt;&amp;lt;featureType&amp;gt;&amp;gt;&lt;/b&gt;&lt;b&gt;&lt;/b&gt;&lt;/p&gt;&lt;p style=&quot;margin:0px;margin-top:4px;text-align:center;&quot;&gt;&lt;b&gt;GaussianSplats&lt;/b&gt;&lt;/p&gt;&lt;hr size=&quot;1&quot;&gt;&lt;p style=&quot;margin:0px;margin-left:4px;&quot;&gt;+ basedOn: PointCloud or images&lt;/p&gt;&lt;p style=&quot;margin:0px;margin-left:4px;&quot;&gt;+ renderEngine: string&lt;/p&gt;&lt;p style=&quot;margin:0px;margin-left:4px;&quot;&gt;+ cameraPosition: xyz&lt;/p&gt;&lt;p style=&quot;margin:0px;margin-left:4px;&quot;&gt;+ fileFormat: string&lt;/p&gt;" style="verticalAlign=top;align=left;overflow=fill;fontSize=12;fontFamily=Helvetica;html=1;rounded=0;shadow=0;comic=0;labelBackgroundColor=none;strokeWidth=1" parent="1" vertex="1">
          <mxGeometry x="450" y="380" width="190" height="110" as="geometry" />
        </mxCell>
        <mxCell id="8iUgthhELrvNvATAvzKY-5" value="&lt;p style=&quot;margin:0px;margin-top:4px;text-align:center;&quot;&gt;&lt;b&gt;&amp;lt;&amp;lt;featureType&amp;gt;&amp;gt;&lt;/b&gt;&lt;b&gt;&lt;/b&gt;&lt;/p&gt;&lt;p style=&quot;margin:0px;margin-top:4px;text-align:center;&quot;&gt;&lt;b&gt;semanticPatch&lt;/b&gt;&lt;/p&gt;&lt;hr size=&quot;1&quot;&gt;&lt;p style=&quot;margin:0px;margin-left:4px;&quot;&gt;+ patchID: Int&lt;/p&gt;&lt;p style=&quot;margin:0px;margin-left:4px;&quot;&gt;+ geometry: GM_Surface or GM_Object [0..1]&lt;/p&gt;&lt;p style=&quot;margin: 0px 0px 0px 4px;&quot;&gt;+ patchSemantics: ExternalSemanticRef&lt;span style=&quot;background-color: transparent; color: light-dark(rgb(0, 0, 0), rgb(255, 255, 255));&quot;&gt;erence [0..1]&lt;/span&gt;&lt;/p&gt;&lt;p style=&quot;margin: 0px 0px 0px 4px;&quot;&gt;&lt;span style=&quot;background-color: transparent; color: light-dark(rgb(0, 0, 0), rgb(255, 255, 255));&quot;&gt;&amp;nbsp; &amp;nbsp; &amp;lt;&amp;lt;see Figure 3.1&amp;gt;&amp;gt;&lt;/span&gt;&lt;/p&gt;&lt;p style=&quot;margin:0px;margin-left:4px;&quot;&gt;&lt;br&gt;&lt;/p&gt;" style="verticalAlign=top;align=left;overflow=fill;fontSize=12;fontFamily=Helvetica;html=1;rounded=0;shadow=0;comic=0;labelBackgroundColor=none;strokeWidth=1" parent="1" vertex="1">
          <mxGeometry x="222.5" y="570" width="301.25" height="110" as="geometry" />
        </mxCell>
        <mxCell id="8iUgthhELrvNvATAvzKY-8" value="&lt;p style=&quot;margin:0px;margin-top:4px;text-align:center;&quot;&gt;&lt;b&gt;&amp;lt;&amp;lt;featureType&amp;gt;&amp;gt;&lt;/b&gt;&lt;b&gt;&lt;/b&gt;&lt;/p&gt;&lt;p style=&quot;margin:0px;margin-top:4px;text-align:center;&quot;&gt;&lt;b&gt;MeshModel&lt;/b&gt;&lt;/p&gt;&lt;hr size=&quot;1&quot;&gt;&lt;p style=&quot;margin:0px;margin-left:4px;&quot;&gt;+triangulationMethod: String&lt;/p&gt;&lt;p style=&quot;margin:0px;margin-left:4px;&quot;&gt;+textureMapped: Boolean&lt;/p&gt;" style="verticalAlign=top;align=left;overflow=fill;fontSize=12;fontFamily=Helvetica;html=1;rounded=0;shadow=0;comic=0;labelBackgroundColor=none;strokeWidth=1" parent="1" vertex="1">
          <mxGeometry x="660" y="380" width="160" height="90" as="geometry" />
        </mxCell>
        <mxCell id="8iUgthhELrvNvATAvzKY-9" value="" style="endArrow=block;endFill=0;endSize=12;html=1;rounded=0;exitX=0.5;exitY=0;exitDx=0;exitDy=0;edgeStyle=orthogonalEdgeStyle;" parent="1" source="8iUgthhELrvNvATAvzKY-3" target="TEzwwiUS5SfaXioJ1mf_-1" edge="1">
          <mxGeometry width="160" relative="1" as="geometry">
            <mxPoint x="153" y="460" as="sourcePoint" />
            <mxPoint x="470" y="360" as="targetPoint" />
          </mxGeometry>
        </mxCell>
        <mxCell id="8iUgthhELrvNvATAvzKY-10" value="" style="endArrow=block;endFill=0;endSize=12;html=1;rounded=0;edgeStyle=orthogonalEdgeStyle;" parent="1" source="8iUgthhELrvNvATAvzKY-4" target="TEzwwiUS5SfaXioJ1mf_-2" edge="1">
          <mxGeometry width="160" relative="1" as="geometry">
            <mxPoint x="365" y="460" as="sourcePoint" />
            <mxPoint x="490" y="370" as="targetPoint" />
            <Array as="points">
              <mxPoint x="545" y="360" />
              <mxPoint x="580" y="360" />
              <mxPoint x="580" y="275" />
            </Array>
          </mxGeometry>
        </mxCell>
        <mxCell id="8iUgthhELrvNvATAvzKY-11" value="" style="endArrow=block;endFill=0;endSize=12;html=1;rounded=0;edgeStyle=orthogonalEdgeStyle;entryX=1;entryY=0.5;entryDx=0;entryDy=0;" parent="1" source="8iUgthhELrvNvATAvzKY-8" target="TEzwwiUS5SfaXioJ1mf_-2" edge="1">
          <mxGeometry width="160" relative="1" as="geometry">
            <mxPoint x="375" y="470" as="sourcePoint" />
            <mxPoint x="500" y="380" as="targetPoint" />
          </mxGeometry>
        </mxCell>
        <mxCell id="HyQDX42nXj2iVGty7oqq-1" value="&lt;p style=&quot;text-wrap-mode: nowrap; margin: 4px 0px 0px;&quot;&gt;&lt;b&gt;&amp;lt;&amp;lt;codeList&amp;gt;&amp;gt;&lt;/b&gt;&lt;/p&gt;&lt;p style=&quot;text-wrap-mode: nowrap; margin: 4px 0px 0px;&quot;&gt;&lt;b&gt;DocumentType&lt;/b&gt;&lt;/p&gt;" style="swimlane;fontStyle=0;childLayout=stackLayout;horizontal=1;startSize=40;fillColor=none;horizontalStack=0;resizeParent=1;resizeParentMax=0;resizeLast=0;collapsible=1;marginBottom=0;whiteSpace=wrap;html=1;" vertex="1" parent="1">
          <mxGeometry x="680" y="30" width="140" height="224" as="geometry">
            <mxRectangle x="45" y="650" width="140" height="50" as="alternateBounds" />
          </mxGeometry>
        </mxCell>
        <mxCell id="HyQDX42nXj2iVGty7oqq-2" value="+ report" style="text;strokeColor=none;fillColor=none;align=left;verticalAlign=top;spacingLeft=4;spacingRight=4;overflow=hidden;rotatable=0;points=[[0,0.5],[1,0.5]];portConstraint=eastwest;whiteSpace=wrap;html=1;" vertex="1" parent="HyQDX42nXj2iVGty7oqq-1">
          <mxGeometry y="40" width="140" height="26" as="geometry" />
        </mxCell>
        <mxCell id="HyQDX42nXj2iVGty7oqq-3" value="+ conservation plan" style="text;strokeColor=none;fillColor=none;align=left;verticalAlign=top;spacingLeft=4;spacingRight=4;overflow=hidden;rotatable=0;points=[[0,0.5],[1,0.5]];portConstraint=eastwest;whiteSpace=wrap;html=1;" vertex="1" parent="HyQDX42nXj2iVGty7oqq-1">
          <mxGeometry y="66" width="140" height="26" as="geometry" />
        </mxCell>
        <mxCell id="HyQDX42nXj2iVGty7oqq-4" value="+ architectural drawing" style="text;strokeColor=none;fillColor=none;align=left;verticalAlign=top;spacingLeft=4;spacingRight=4;overflow=hidden;rotatable=0;points=[[0,0.5],[1,0.5]];portConstraint=eastwest;whiteSpace=wrap;html=1;" vertex="1" parent="HyQDX42nXj2iVGty7oqq-1">
          <mxGeometry y="92" width="140" height="26" as="geometry" />
        </mxCell>
        <mxCell id="HyQDX42nXj2iVGty7oqq-5" value="+ floorplan" style="text;strokeColor=none;fillColor=none;align=left;verticalAlign=top;spacingLeft=4;spacingRight=4;overflow=hidden;rotatable=0;points=[[0,0.5],[1,0.5]];portConstraint=eastwest;whiteSpace=wrap;html=1;" vertex="1" parent="HyQDX42nXj2iVGty7oqq-1">
          <mxGeometry y="118" width="140" height="28" as="geometry" />
        </mxCell>
        <mxCell id="HyQDX42nXj2iVGty7oqq-6" value="+ historical archive" style="text;strokeColor=none;fillColor=none;align=left;verticalAlign=top;spacingLeft=4;spacingRight=4;overflow=hidden;rotatable=0;points=[[0,0.5],[1,0.5]];portConstraint=eastwest;whiteSpace=wrap;html=1;" vertex="1" parent="HyQDX42nXj2iVGty7oqq-1">
          <mxGeometry y="146" width="140" height="26" as="geometry" />
        </mxCell>
        <mxCell id="HyQDX42nXj2iVGty7oqq-7" value="+ official registry" style="text;strokeColor=none;fillColor=none;align=left;verticalAlign=top;spacingLeft=4;spacingRight=4;overflow=hidden;rotatable=0;points=[[0,0.5],[1,0.5]];portConstraint=eastwest;whiteSpace=wrap;html=1;" vertex="1" parent="HyQDX42nXj2iVGty7oqq-1">
          <mxGeometry y="172" width="140" height="26" as="geometry" />
        </mxCell>
        <mxCell id="HyQDX42nXj2iVGty7oqq-8" value="+ photo" style="text;strokeColor=none;fillColor=none;align=left;verticalAlign=top;spacingLeft=4;spacingRight=4;overflow=hidden;rotatable=0;points=[[0,0.5],[1,0.5]];portConstraint=eastwest;whiteSpace=wrap;html=1;" vertex="1" parent="HyQDX42nXj2iVGty7oqq-1">
          <mxGeometry y="198" width="140" height="26" as="geometry" />
        </mxCell>
        <mxCell id="HyQDX42nXj2iVGty7oqq-10" value="hasDocumentation" style="endArrow=none;html=1;endSize=12;startArrow=none;startSize=14;startFill=0;edgeStyle=orthogonalEdgeStyle;rounded=0;exitX=0.5;exitY=0;exitDx=0;exitDy=0;entryX=0.001;entryY=0.188;entryDx=0;entryDy=0;entryPerimeter=0;" edge="1" parent="1" source="8iUgthhELrvNvATAvzKY-1" target="17acba5748e5396b-45">
          <mxGeometry x="0.0174" y="12" relative="1" as="geometry">
            <mxPoint x="310" y="320" as="sourcePoint" />
            <mxPoint x="470" y="320" as="targetPoint" />
            <mxPoint as="offset" />
          </mxGeometry>
        </mxCell>
        <mxCell id="HyQDX42nXj2iVGty7oqq-11" value="1..*" style="edgeLabel;resizable=0;html=1;align=left;verticalAlign=top;" connectable="0" vertex="1" parent="HyQDX42nXj2iVGty7oqq-10">
          <mxGeometry x="-1" relative="1" as="geometry">
            <mxPoint x="4" y="-30" as="offset" />
          </mxGeometry>
        </mxCell>
        <mxCell id="HyQDX42nXj2iVGty7oqq-12" value="0..*" style="edgeLabel;resizable=0;html=1;align=right;verticalAlign=top;" connectable="0" vertex="1" parent="HyQDX42nXj2iVGty7oqq-10">
          <mxGeometry x="1" relative="1" as="geometry">
            <mxPoint x="-8" as="offset" />
          </mxGeometry>
        </mxCell>
        <mxCell id="HyQDX42nXj2iVGty7oqq-13" value="&lt;p style=&quot;text-wrap-mode: nowrap; margin: 4px 0px 0px;&quot;&gt;&lt;b&gt;&amp;lt;&amp;lt;codeList&amp;gt;&amp;gt;&lt;/b&gt;&lt;/p&gt;&lt;p style=&quot;text-wrap-mode: nowrap; margin: 4px 0px 0px;&quot;&gt;&lt;b&gt;SpatialReferenceType&lt;/b&gt;&lt;/p&gt;" style="swimlane;fontStyle=0;childLayout=stackLayout;horizontal=1;startSize=40;fillColor=none;horizontalStack=0;resizeParent=1;resizeParentMax=0;resizeLast=0;collapsible=1;marginBottom=0;whiteSpace=wrap;html=1;" vertex="1" parent="1">
          <mxGeometry x="692.5" y="565" width="127.5" height="120" as="geometry">
            <mxRectangle x="45" y="650" width="140" height="50" as="alternateBounds" />
          </mxGeometry>
        </mxCell>
        <mxCell id="HyQDX42nXj2iVGty7oqq-14" value="+ georeferenced" style="text;strokeColor=none;fillColor=none;align=left;verticalAlign=top;spacingLeft=4;spacingRight=4;overflow=hidden;rotatable=0;points=[[0,0.5],[1,0.5]];portConstraint=eastwest;whiteSpace=wrap;html=1;" vertex="1" parent="HyQDX42nXj2iVGty7oqq-13">
          <mxGeometry y="40" width="127.5" height="26" as="geometry" />
        </mxCell>
        <mxCell id="HyQDX42nXj2iVGty7oqq-15" value="+ local" style="text;strokeColor=none;fillColor=none;align=left;verticalAlign=top;spacingLeft=4;spacingRight=4;overflow=hidden;rotatable=0;points=[[0,0.5],[1,0.5]];portConstraint=eastwest;whiteSpace=wrap;html=1;" vertex="1" parent="HyQDX42nXj2iVGty7oqq-13">
          <mxGeometry y="66" width="127.5" height="26" as="geometry" />
        </mxCell>
        <mxCell id="HyQDX42nXj2iVGty7oqq-16" value="+ aligned only" style="text;strokeColor=none;fillColor=none;align=left;verticalAlign=top;spacingLeft=4;spacingRight=4;overflow=hidden;rotatable=0;points=[[0,0.5],[1,0.5]];portConstraint=eastwest;whiteSpace=wrap;html=1;" vertex="1" parent="HyQDX42nXj2iVGty7oqq-13">
          <mxGeometry y="92" width="127.5" height="28" as="geometry" />
        </mxCell>
        <mxCell id="HyQDX42nXj2iVGty7oqq-19" style="edgeStyle=orthogonalEdgeStyle;rounded=0;orthogonalLoop=1;jettySize=auto;html=1;exitX=1;exitY=1;exitDx=0;exitDy=0;entryX=0.999;entryY=0.993;entryDx=0;entryDy=0;entryPerimeter=0;" edge="1" parent="HyQDX42nXj2iVGty7oqq-13" source="HyQDX42nXj2iVGty7oqq-13" target="HyQDX42nXj2iVGty7oqq-16">
          <mxGeometry relative="1" as="geometry" />
        </mxCell>
        <mxCell id="HyQDX42nXj2iVGty7oqq-20" value="alignedSemanticPatches" style="endArrow=none;html=1;endSize=12;startArrow=none;startSize=14;startFill=0;edgeStyle=orthogonalEdgeStyle;rounded=0;exitX=0.5;exitY=1;exitDx=0;exitDy=0;entryX=0.5;entryY=0;entryDx=0;entryDy=0;" edge="1" parent="1" source="TEzwwiUS5SfaXioJ1mf_-9" target="8iUgthhELrvNvATAvzKY-5">
          <mxGeometry x="0.0055" y="-10" relative="1" as="geometry">
            <mxPoint x="430" y="530" as="sourcePoint" />
            <mxPoint x="590" y="530" as="targetPoint" />
            <Array as="points">
              <mxPoint x="125" y="520" />
              <mxPoint x="373" y="520" />
            </Array>
            <mxPoint as="offset" />
          </mxGeometry>
        </mxCell>
        <mxCell id="HyQDX42nXj2iVGty7oqq-21" value="1..*" style="edgeLabel;resizable=0;html=1;align=left;verticalAlign=top;" connectable="0" vertex="1" parent="HyQDX42nXj2iVGty7oqq-20">
          <mxGeometry x="-1" relative="1" as="geometry">
            <mxPoint x="5" as="offset" />
          </mxGeometry>
        </mxCell>
        <mxCell id="HyQDX42nXj2iVGty7oqq-22" value="0..*" style="edgeLabel;resizable=0;html=1;align=right;verticalAlign=top;" connectable="0" vertex="1" parent="HyQDX42nXj2iVGty7oqq-20">
          <mxGeometry x="1" relative="1" as="geometry">
            <mxPoint x="27" y="-30" as="offset" />
          </mxGeometry>
        </mxCell>
        <mxCell id="HyQDX42nXj2iVGty7oqq-23" value="" style="endArrow=none;html=1;endSize=12;startArrow=none;startSize=14;startFill=0;edgeStyle=orthogonalEdgeStyle;rounded=0;exitX=0.5;exitY=1;exitDx=0;exitDy=0;entryX=0.5;entryY=0;entryDx=0;entryDy=0;" edge="1" parent="1" source="8iUgthhELrvNvATAvzKY-3" target="8iUgthhELrvNvATAvzKY-5">
          <mxGeometry relative="1" as="geometry">
            <mxPoint x="580" y="570" as="sourcePoint" />
            <mxPoint x="828" y="670" as="targetPoint" />
            <Array as="points">
              <mxPoint x="328" y="520" />
              <mxPoint x="373" y="520" />
            </Array>
          </mxGeometry>
        </mxCell>
        <mxCell id="HyQDX42nXj2iVGty7oqq-24" value="1..*" style="edgeLabel;resizable=0;html=1;align=left;verticalAlign=top;" connectable="0" vertex="1" parent="HyQDX42nXj2iVGty7oqq-23">
          <mxGeometry x="-1" relative="1" as="geometry">
            <mxPoint x="5" as="offset" />
          </mxGeometry>
        </mxCell>
        <mxCell id="HyQDX42nXj2iVGty7oqq-25" value="0..*" style="edgeLabel;resizable=0;html=1;align=right;verticalAlign=top;" connectable="0" vertex="1" parent="HyQDX42nXj2iVGty7oqq-23">
          <mxGeometry x="1" relative="1" as="geometry">
            <mxPoint x="27" y="-30" as="offset" />
          </mxGeometry>
        </mxCell>
        <mxCell id="HyQDX42nXj2iVGty7oqq-26" value="" style="endArrow=none;html=1;endSize=12;startArrow=none;startSize=14;startFill=0;edgeStyle=orthogonalEdgeStyle;rounded=0;exitX=0.474;exitY=1;exitDx=0;exitDy=0;entryX=0.5;entryY=0;entryDx=0;entryDy=0;exitPerimeter=0;" edge="1" parent="1" source="8iUgthhELrvNvATAvzKY-4" target="8iUgthhELrvNvATAvzKY-5">
          <mxGeometry relative="1" as="geometry">
            <mxPoint x="490" y="540" as="sourcePoint" />
            <mxPoint x="738" y="640" as="targetPoint" />
            <Array as="points">
              <mxPoint x="540" y="520" />
              <mxPoint x="373" y="520" />
            </Array>
          </mxGeometry>
        </mxCell>
        <mxCell id="HyQDX42nXj2iVGty7oqq-27" value="1..*" style="edgeLabel;resizable=0;html=1;align=left;verticalAlign=top;" connectable="0" vertex="1" parent="HyQDX42nXj2iVGty7oqq-26">
          <mxGeometry x="-1" relative="1" as="geometry">
            <mxPoint x="5" as="offset" />
          </mxGeometry>
        </mxCell>
        <mxCell id="HyQDX42nXj2iVGty7oqq-28" value="0..*" style="edgeLabel;resizable=0;html=1;align=right;verticalAlign=top;" connectable="0" vertex="1" parent="HyQDX42nXj2iVGty7oqq-26">
          <mxGeometry x="1" relative="1" as="geometry">
            <mxPoint x="27" y="-30" as="offset" />
          </mxGeometry>
        </mxCell>
        <mxCell id="HyQDX42nXj2iVGty7oqq-29" value="alignedSemanticPatches" style="endArrow=none;html=1;endSize=12;startArrow=none;startSize=14;startFill=0;edgeStyle=orthogonalEdgeStyle;rounded=0;exitX=0.5;exitY=1;exitDx=0;exitDy=0;entryX=0.5;entryY=0;entryDx=0;entryDy=0;" edge="1" parent="1" source="8iUgthhELrvNvATAvzKY-8" target="8iUgthhELrvNvATAvzKY-5">
          <mxGeometry x="-0.0148" y="10" relative="1" as="geometry">
            <mxPoint x="650" y="550" as="sourcePoint" />
            <mxPoint x="898" y="650" as="targetPoint" />
            <mxPoint as="offset" />
          </mxGeometry>
        </mxCell>
        <mxCell id="HyQDX42nXj2iVGty7oqq-30" value="1..*" style="edgeLabel;resizable=0;html=1;align=left;verticalAlign=top;" connectable="0" vertex="1" parent="HyQDX42nXj2iVGty7oqq-29">
          <mxGeometry x="-1" relative="1" as="geometry">
            <mxPoint x="5" as="offset" />
          </mxGeometry>
        </mxCell>
        <mxCell id="HyQDX42nXj2iVGty7oqq-31" value="0..*" style="edgeLabel;resizable=0;html=1;align=right;verticalAlign=top;" connectable="0" vertex="1" parent="HyQDX42nXj2iVGty7oqq-29">
          <mxGeometry x="1" relative="1" as="geometry">
            <mxPoint x="27" y="-30" as="offset" />
          </mxGeometry>
        </mxCell>
      </root>
    </mxGraphModel>
  </diagram>
</mxfile>
